<svg width="130" height="40" viewBox="0 0 130 40" fill="none" xmlns="http://www.w3.org/2000/svg">
<!-- MediaAsset tile: size-10 (40px), rounded-lg (8px), bg-sidebar-primary (light: #1a5244) -->
<rect width="40" height="40" rx="8" fill="#1a5244"/>
<!-- Icon: size-6 (24px), centered -->
<g transform="translate(8 8) scale(1.2)">
<path fill-rule="evenodd" clip-rule="evenodd" d="M20 2H11.6279C10.976 2.35496 10.6192 2.66012 10.4014 2.99805C10.2395 3.24919 10.1347 3.54812 10.0664 3.95898C10.1628 3.88774 10.2645 3.8192 10.373 3.75586C11.2307 3.25557 12.4563 3 14 3H14.5684L14.4961 3.56348C14.3158 4.97252 14.1836 6.57634 13.6279 7.7998C13.5958 7.8706 13.5608 7.93987 13.5254 8.00879C13.6801 8.00319 13.8383 8 14 8H14.5684L14.4961 8.56348C14.3158 9.97252 14.1836 11.5763 13.6279 12.7998C13.5958 12.8706 13.5608 12.9399 13.5254 13.0088C13.6801 13.0032 13.8383 13 14 13H14.5684L14.4961 13.5635C14.3158 14.9725 14.1836 16.5763 13.6279 17.7998C13.3416 18.43 12.9314 18.9914 12.3232 19.3906C11.7148 19.79 10.9497 20 10 20H9C8.05027 20 7.28522 19.79 6.67676 19.3906C6.06861 18.9914 5.65838 18.43 5.37207 17.7998C4.81637 16.5763 4.6842 14.9725 4.50391 13.5635L4.43164 13H5C5.16036 13 5.31726 13.0033 5.4707 13.0088C5.43548 12.9402 5.40213 12.8703 5.37012 12.7998C4.81446 11.5764 4.68224 9.97248 4.50195 8.56348L4.42969 8H4.99805C5.15898 8 5.31674 8.00325 5.4707 8.00879C5.43548 7.94017 5.40213 7.87028 5.37012 7.7998C4.81446 6.57636 4.68224 4.97248 4.50195 3.56348L4.42969 3H4.99805C6.54157 3 7.76737 3.25566 8.625 3.75586C8.746 3.82645 8.85803 3.904 8.96387 3.98438C8.91605 3.58816 8.82087 3.30052 8.66016 3.05273C8.44089 2.71467 8.06337 2.39401 7.36621 2H0V0H20V2ZM13.4326 14.0137C12.2736 14.0691 11.4324 14.2952 10.877 14.6191C10.2599 14.9791 10 15.4505 10 16H9C9 15.4505 8.74008 14.9791 8.12305 14.6191C7.56757 14.2952 6.72637 14.0691 5.56738 14.0137C5.72473 15.2974 5.86772 16.4743 6.28223 17.3867C6.51178 17.892 6.81391 18.2844 7.22559 18.5547C7.6369 18.8246 8.20004 19 9 19H10C10.8 19 11.3631 18.8246 11.7744 18.5547C12.1861 18.2844 12.4882 17.892 12.7178 17.3867C13.1323 16.4743 13.2753 15.2974 13.4326 14.0137ZM13.4326 9.01367C12.2736 9.06909 11.4324 9.29515 10.877 9.61914C10.2599 9.97908 10 10.4505 10 11H8.99805C8.99805 10.4505 8.73813 9.97908 8.12109 9.61914C7.56562 9.29523 6.72426 9.06909 5.56543 9.01367C5.72277 10.2974 5.86581 11.4743 6.28027 12.3867C6.41002 12.6723 6.56427 12.921 6.74707 13.1328C7.4935 13.2557 8.12378 13.4623 8.62695 13.7559C8.98494 13.9647 9.27764 14.2174 9.5 14.5068C9.72236 14.2174 10.0151 13.9647 10.373 13.7559C10.878 13.4613 11.5109 13.2545 12.2607 13.1318C12.2568 13.1325 12.2529 13.1331 12.249 13.1338C12.4325 12.9216 12.5877 12.6731 12.7178 12.3867C13.1323 11.4743 13.2753 10.2974 13.4326 9.01367ZM13.4326 4.01367C12.2736 4.06909 11.4324 4.29515 10.877 4.61914C10.2599 4.97908 10 5.45051 10 6H8.99805C8.99805 5.45051 8.73813 4.97908 8.12109 4.61914C7.56562 4.29523 6.72426 4.06909 5.56543 4.01367C5.72277 5.29735 5.86581 6.47429 6.28027 7.38672C6.41024 7.6728 6.56485 7.92176 6.74805 8.13379C7.49318 8.25669 8.12247 8.46277 8.625 8.75586C8.98369 8.96512 9.27651 9.21868 9.49902 9.50879C9.72154 9.21868 10.0144 8.96512 10.373 8.75586C10.878 8.46132 11.5109 8.25452 12.2607 8.13184C12.2568 8.13248 12.2529 8.13314 12.249 8.13379C12.4325 7.92163 12.5877 7.67309 12.7178 7.38672C13.1323 6.47428 13.2753 5.29741 13.4326 4.01367ZM9.49902 4.50879C9.50128 4.50585 9.50359 4.50294 9.50586 4.5H9.49121C9.49361 4.50309 9.49664 4.50569 9.49902 4.50879ZM8 1.20898C8.67862 1.60659 9.17328 2.00657 9.49902 2.50879C9.50434 2.51699 9.50846 2.52595 9.51367 2.53418C9.52924 2.50821 9.54404 2.48167 9.56055 2.45605C9.88272 1.9563 10.3552 1.5705 11 1.20312V1H8V1.20898Z" fill="#D4A373"/>
</g>
<!-- Wordmark: TypographyXLarge (text-xl 20px) + font-bold, gap-3 (12px) -->
<text x="52" y="27" font-family="Inter, ui-sans-serif, system-ui, -apple-system, sans-serif" font-size="20" font-weight="700" fill="#1f2933">Trofiro</text>
</svg>
